<?xml version="1.0" standalone="no"?>
<!DOCTYPE svg PUBLIC "-//W3C//DTD SVG 20010904//EN"
 "http://www.w3.org/TR/2001/REC-SVG-20010904/DTD/svg10.dtd">
<svg version="1.0" xmlns="http://www.w3.org/2000/svg"
 width="10pt" height="58.000000pt" viewBox="0 0 58.000000 58.000000"
 preserveAspectRatio="xMidYMid meet">
<g transform="translate(0.000000,58.000000) scale(0.100000,-0.100000)"
fill="#ffffff" stroke="none">
<path d="M140 460 l0 -119 -67 -3 -68 -3 0 -165 0 -165 285 0 285 0 0 165 0
165 -67 3 -68 3 0 119 0 120 -150 0 -150 0 0 -120z m100 41 l0 -49 50 0 50 0
0 49 0 49 35 0 35 0 0 -105 0 -105 -120 0 -120 0 0 105 0 105 35 0 35 0 0 -49z
m70 19 c0 -23 -4 -30 -20 -30 -16 0 -20 7 -20 30 0 23 4 30 20 30 16 0 20 -7
20 -30z m-208 -257 l3 -48 48 -1 c50 -2 50 -2 47 59 -1 36 -1 37 34 37 l36 0
0 -105 0 -105 -120 0 -120 0 0 105 0 105 34 0 c34 0 35 -1 38 -47z m68 17 c0
-22 -5 -30 -18 -30 -15 0 -18 6 -14 30 6 40 32 40 32 0z m208 -17 l-3 -48 50
0 50 0 3 48 c3 46 4 47 38 47 l34 0 0 -105 0 -105 -120 0 -120 0 0 105 0 105
36 0 36 0 -4 -47z m64 17 c4 -24 1 -30 -14 -30 -13 0 -18 8 -18 30 0 19 5 30
14 30 8 0 16 -13 18 -30z m108 -230 c0 -19 -7 -20 -260 -20 -253 0 -260 1
-260 20 0 19 7 20 260 20 253 0 260 -1 260 -20z"/>
</g>
</svg>
